<svg width="140px" height="30px" version="1.1" xmlns="http://www.w3.org/2000/svg"
    xmlns:xlink="http://www.w3.org/1999/xlink" xml:space="preserve" xmlns:serif="http://www.serif.com/"
    style="fill-rule:evenodd;clip-rule:evenodd;stroke-linejoin:round;stroke-miterlimit:2;">
    <path id="Text"
        d="M41.229,23.052l-6.988,4.711c-0.502,0.339 -1.188,0.287 -1.653,-0.124c-0.464,-0.411 -0.582,-1.072 -0.284,-1.592l2.734,-4.771l-0,-16.574c-0,-0.913 0.238,-1.607 0.715,-2.084c0.477,-0.477 1.151,-0.716 2.022,-0.716c0.892,0 1.582,0.239 2.069,0.716c0.487,0.477 0.731,1.171 0.731,2.084l0,5.916c0.344,-0.522 0.831,-0.97 1.462,-1.343c0.913,-0.539 1.939,-0.809 3.08,-0.809c1.327,0 2.494,0.322 3.5,0.965c1.006,0.643 1.789,1.555 2.349,2.737c0.559,1.182 0.839,2.613 0.839,4.293c0,1.639 -0.28,3.059 -0.839,4.262c-0.56,1.203 -1.343,2.126 -2.349,2.769c-1.006,0.643 -2.173,0.964 -3.5,0.964c-1.182,0 -2.235,-0.285 -3.158,-0.855c-0.27,-0.167 -0.514,-0.35 -0.73,-0.549Zm2.146,-2.671c0.56,0 1.052,-0.14 1.478,-0.42c0.425,-0.28 0.762,-0.705 1.011,-1.275c0.248,-0.571 0.373,-1.312 0.373,-2.225c-0,-1.389 -0.27,-2.39 -0.809,-3.002c-0.539,-0.612 -1.224,-0.917 -2.053,-0.917c-0.56,-0 -1.058,0.134 -1.493,0.404c-0.436,0.27 -0.778,0.69 -1.027,1.26c-0.249,0.57 -0.373,1.322 -0.373,2.255c-0,1.369 0.269,2.365 0.809,2.987c0.539,0.622 1.234,0.933 2.084,0.933Zm14.29,-2.8c0.143,0.808 0.435,1.425 0.876,1.851c0.653,0.633 1.664,0.949 3.033,0.949c0.456,0 0.98,-0.057 1.571,-0.171c0.591,-0.114 1.156,-0.275 1.695,-0.482c0.539,-0.208 1.006,-0.244 1.4,-0.109c0.394,0.135 0.7,0.363 0.918,0.684c0.218,0.322 0.337,0.685 0.358,1.089c0.02,0.404 -0.073,0.799 -0.28,1.182c-0.208,0.384 -0.55,0.679 -1.027,0.887c-0.726,0.332 -1.498,0.581 -2.318,0.746c-0.819,0.166 -1.643,0.249 -2.473,0.249c-1.866,0 -3.479,-0.326 -4.837,-0.98c-1.359,-0.653 -2.401,-1.581 -3.127,-2.784c-0.726,-1.203 -1.089,-2.623 -1.089,-4.262c0,-1.576 0.348,-2.96 1.043,-4.153c0.694,-1.192 1.648,-2.126 2.862,-2.8c1.213,-0.674 2.597,-1.011 4.153,-1.011c1.14,0 2.177,0.182 3.111,0.545c0.933,0.363 1.731,0.891 2.395,1.586c0.664,0.695 1.167,1.53 1.509,2.504c0.342,0.975 0.513,2.064 0.513,3.267c0,0.415 -0.114,0.721 -0.342,0.918c-0.228,0.197 -0.591,0.295 -1.089,0.295l-8.855,0Zm-0.038,-2.613l5.772,0c-0.031,-0.585 -0.131,-1.072 -0.301,-1.462c-0.207,-0.477 -0.513,-0.84 -0.918,-1.089c-0.404,-0.249 -0.907,-0.373 -1.508,-0.373c-0.643,-0 -1.198,0.15 -1.665,0.451c-0.466,0.301 -0.824,0.741 -1.073,1.322c-0.144,0.335 -0.246,0.719 -0.307,1.151Zm43.792,7.116c-0.337,0.6 -0.838,1.106 -1.503,1.517c-0.923,0.57 -1.976,0.855 -3.158,0.855c-1.306,0 -2.463,-0.321 -3.468,-0.964c-1.006,-0.643 -1.794,-1.566 -2.365,-2.769c-0.57,-1.203 -0.855,-2.623 -0.855,-4.262c-0,-1.68 0.285,-3.111 0.855,-4.293c0.571,-1.182 1.359,-2.094 2.365,-2.737c1.005,-0.643 2.162,-0.965 3.468,-0.965c1.141,0 2.168,0.27 3.08,0.809c0.651,0.384 1.148,0.848 1.493,1.391l0,-5.964c0,-0.913 0.239,-1.607 0.716,-2.084c0.477,-0.477 1.161,-0.716 2.053,-0.716c0.871,0 1.55,0.239 2.038,0.716c0.487,0.477 0.731,1.171 0.731,2.084l-0,16.892c-0,0.913 -0.234,1.608 -0.7,2.085c-0.467,0.477 -1.146,0.715 -2.038,0.715c-0.871,0 -1.545,-0.238 -2.022,-0.715c-0.388,-0.388 -0.618,-0.919 -0.69,-1.595Zm-2.888,-1.703c0.56,0 1.058,-0.14 1.494,-0.42c0.435,-0.28 0.772,-0.705 1.011,-1.275c0.238,-0.571 0.358,-1.312 0.358,-2.225c-0,-1.389 -0.27,-2.39 -0.809,-3.002c-0.54,-0.612 -1.224,-0.917 -2.054,-0.917c-0.56,-0 -1.057,0.134 -1.493,0.404c-0.435,0.27 -0.778,0.69 -1.026,1.26c-0.249,0.57 -0.374,1.322 -0.374,2.255c0,1.369 0.27,2.365 0.809,2.987c0.539,0.622 1.234,0.933 2.084,0.933Zm21.386,-4.295l3.813,4.793c0.456,0.58 0.643,1.146 0.56,1.695c-0.083,0.55 -0.348,0.991 -0.793,1.322c-0.446,0.332 -1.011,0.498 -1.696,0.498c-0.829,0 -1.493,-0.15 -1.991,-0.451c-0.498,-0.301 -0.995,-0.773 -1.493,-1.415l-3.889,-4.791l-0.062,-0l0,3.857c0,1.867 -0.933,2.8 -2.8,2.8c-0.871,0 -1.545,-0.238 -2.022,-0.715c-0.477,-0.477 -0.715,-1.172 -0.715,-2.085l-0,-16.892c-0,-0.913 0.238,-1.607 0.715,-2.084c0.477,-0.477 1.151,-0.716 2.022,-0.716c0.892,0 1.582,0.239 2.069,0.716c0.487,0.477 0.731,1.171 0.731,2.084l0,10.266l0.062,0l3.796,-4.604c0.518,-0.622 1,-1.084 1.446,-1.384c0.446,-0.301 1.053,-0.452 1.82,-0.452c0.767,0 1.358,0.187 1.773,0.56c0.415,0.374 0.633,0.84 0.654,1.4c0.02,0.56 -0.208,1.12 -0.685,1.68l-3.315,3.918Zm14.93,5.848c-0.128,0.369 -0.308,0.701 -0.54,0.998c-0.373,0.477 -0.861,0.85 -1.462,1.12c-0.602,0.27 -1.286,0.404 -2.053,0.404c-1.182,0 -2.225,-0.217 -3.127,-0.653c-0.902,-0.435 -1.607,-1.032 -2.115,-1.789c-0.508,-0.757 -0.762,-1.623 -0.762,-2.597c-0,-1.12 0.29,-2.002 0.871,-2.645c0.58,-0.643 1.514,-1.104 2.799,-1.384c1.286,-0.28 2.997,-0.42 5.134,-0.42l1.182,0l-0,-0.436c-0,-0.746 -0.192,-1.275 -0.576,-1.586c-0.384,-0.311 -1.042,-0.467 -1.975,-0.467c-0.498,0 -1.058,0.057 -1.68,0.171c-0.622,0.114 -1.317,0.317 -2.085,0.607c-0.559,0.207 -1.036,0.239 -1.431,0.093c-0.394,-0.145 -0.699,-0.394 -0.917,-0.746c-0.218,-0.353 -0.322,-0.737 -0.311,-1.151c0.01,-0.415 0.145,-0.809 0.404,-1.182c0.259,-0.374 0.659,-0.664 1.198,-0.872c0.995,-0.373 1.913,-0.622 2.753,-0.746c0.84,-0.125 1.612,-0.187 2.318,-0.187c1.7,0 3.105,0.244 4.215,0.731c1.109,0.488 1.939,1.234 2.489,2.24c0.549,1.006 0.824,2.297 0.824,3.873l0,6.284c0,0.913 -0.218,1.608 -0.653,2.085c-0.436,0.477 -1.068,0.715 -1.898,0.715c-0.85,0 -1.498,-0.238 -1.944,-0.715c-0.389,-0.416 -0.608,-0.998 -0.658,-1.745Zm-0.073,-4.353l-1.182,0c-0.809,0 -1.478,0.057 -2.007,0.171c-0.529,0.114 -0.918,0.291 -1.167,0.529c-0.249,0.239 -0.373,0.545 -0.373,0.918c0,0.477 0.171,0.871 0.513,1.182c0.343,0.311 0.835,0.467 1.478,0.467c0.519,-0 0.98,-0.114 1.384,-0.343c0.405,-0.228 0.731,-0.544 0.98,-0.948c0.249,-0.405 0.374,-0.877 0.374,-1.416l-0,-0.56Zm-59.574,6.875c-0.913,0 -1.841,-0.067 -2.785,-0.202c-0.943,-0.135 -1.799,-0.378 -2.566,-0.731c-0.519,-0.207 -0.887,-0.487 -1.105,-0.84c-0.217,-0.352 -0.321,-0.726 -0.311,-1.12c0.011,-0.394 0.125,-0.752 0.343,-1.073c0.217,-0.322 0.508,-0.55 0.871,-0.685c0.363,-0.134 0.772,-0.119 1.228,0.047c0.871,0.311 1.654,0.534 2.349,0.669c0.695,0.135 1.364,0.202 2.007,0.202c0.767,0 1.317,-0.109 1.648,-0.326c0.332,-0.218 0.498,-0.503 0.498,-0.856c0,-0.311 -0.109,-0.55 -0.326,-0.715c-0.218,-0.166 -0.524,-0.28 -0.918,-0.343l-3.453,-0.56c-1.286,-0.228 -2.282,-0.7 -2.987,-1.415c-0.705,-0.716 -1.057,-1.654 -1.057,-2.815c-0,-1.079 0.305,-2.007 0.917,-2.785c0.612,-0.777 1.452,-1.379 2.52,-1.804c1.068,-0.425 2.297,-0.638 3.687,-0.638c0.933,0 1.783,0.068 2.55,0.202c0.768,0.135 1.514,0.379 2.24,0.731c0.457,0.187 0.778,0.457 0.965,0.809c0.186,0.353 0.259,0.721 0.218,1.105c-0.042,0.383 -0.172,0.736 -0.389,1.057c-0.218,0.322 -0.514,0.54 -0.887,0.654c-0.373,0.114 -0.809,0.088 -1.307,-0.078c-0.684,-0.27 -1.291,-0.467 -1.819,-0.591c-0.529,-0.125 -1.022,-0.187 -1.478,-0.187c-0.85,0 -1.452,0.114 -1.804,0.342c-0.353,0.229 -0.529,0.519 -0.529,0.871c-0,0.27 0.093,0.493 0.28,0.669c0.186,0.177 0.477,0.296 0.871,0.358l3.453,0.591c1.327,0.208 2.349,0.659 3.064,1.353c0.716,0.695 1.073,1.634 1.073,2.816c0,1.68 -0.643,2.981 -1.928,3.904c-1.286,0.923 -2.997,1.384 -5.133,1.384Zm10.826,-0.062c-0.871,0 -1.546,-0.259 -2.023,-0.778c-0.477,-0.518 -0.715,-1.265 -0.715,-2.239l-0,-9.831c-0,-0.975 0.238,-1.721 0.715,-2.24c0.477,-0.518 1.152,-0.778 2.023,-0.778c0.891,0 1.581,0.26 2.068,0.778c0.488,0.519 0.731,1.265 0.731,2.24l0,9.831c0,0.974 -0.238,1.721 -0.715,2.239c-0.477,0.519 -1.172,0.778 -2.084,0.778Zm-0,-18.074c-0.975,-0 -1.727,-0.228 -2.256,-0.685c-0.529,-0.456 -0.793,-1.12 -0.793,-1.991c-0,-0.85 0.264,-1.503 0.793,-1.96c0.529,-0.456 1.281,-0.684 2.256,-0.684c1.016,0 1.783,0.228 2.302,0.684c0.518,0.457 0.777,1.11 0.777,1.96c0,0.871 -0.259,1.535 -0.777,1.991c-0.519,0.457 -1.286,0.685 -2.302,0.685Z"
        style="fill:currentColor;" />
    <g id="Icon">
        <g id="Body">
            <path
                d="M7.855,21.632l-6.382,5.567c-0.401,0.35 -0.906,0.36 -1.216,0.025c-0.311,-0.335 -0.343,-0.927 -0.078,-1.425l3.418,-6.429c1.11,1.384 2.636,2.166 4.258,2.262Z"
                style="fill:currentColor;" />
            <path
                d="M7.484,5.006c0.612,-2.267 2.854,-4.006 5.468,-4.006c2.614,-0 4.856,1.739 5.467,4.006c2.266,-0.603 4.89,0.474 6.197,2.742c1.307,2.268 0.925,5.084 -0.729,6.748c1.654,1.664 2.036,4.479 0.729,6.748c-1.307,2.268 -3.931,3.344 -6.197,2.742c-0.611,2.267 -2.853,4.006 -5.467,4.006c-2.614,-0 -4.856,-1.739 -5.468,-4.006c-2.265,0.602 -4.889,-0.474 -6.196,-2.742c-1.307,-2.269 -0.925,-5.084 0.728,-6.748c-1.653,-1.664 -2.035,-4.48 -0.728,-6.748c1.307,-2.268 3.931,-3.345 6.196,-2.742Z"
                style="fill:currentColor;" />
        </g>
        <g id="Eyes">
            <g id="Right-eye" serif:id="Right eye">
                <ellipse cx="9.481" cy="12.693" rx="2.988" ry="3.719" style="fill:var(--color-logo-eyes-bg);" />
                <ellipse cx="10.441" cy="12.693" rx="0.96" ry="1.013" style="fill:currentColor;" />
            </g>
            <g id="Left-eye" serif:id="Left eye">
                <ellipse cx="17.67" cy="12.403" rx="2.67" ry="3.429" style="fill:var(--color-logo-eyes-bg);" />
                <ellipse cx="18.528" cy="12.403" rx="0.858" ry="0.934" style="fill:currentColor;" />
            </g>
        </g>
    </g>
</svg>