<?xml version="1.0" encoding="UTF-8" standalone="no"?><!DOCTYPE svg PUBLIC "-//W3C//DTD SVG 1.1//EN" "http://www.w3.org/Graphics/SVG/1.1/DTD/svg11.dtd"><svg width="500px" height="500px" version="1.1" xmlns="http://www.w3.org/2000/svg" xmlns:xlink="http://www.w3.org/1999/xlink" xml:space="preserve" xmlns:serif="http://www.serif.com/" style="fill-rule:evenodd;clip-rule:evenodd;stroke-linejoin:round;stroke-miterlimit:2;"><g id="Dark" transform="matrix(0.450015,0,0,0.450015,-195.095,-103.438)"><g id="Body"><g transform="matrix(0.570231,0.236547,-0.35248,0.849704,952.79,-447.751)"><path d="M708.235,1586.02l-240.783,325.884c-15.14,20.492 -44.76,29.225 -71.325,21.031c-26.566,-8.195 -42.99,-31.131 -39.551,-55.232l44.436,-311.37c99.563,36.664 208.933,42.557 307.223,19.687Z" style="fill:#f8a6d3;"/></g><g transform="matrix(0.997976,0,0,1,-172.101,-302.744)"><path d="M956.979,713.184c24.219,-89.582 112.994,-158.307 216.499,-158.307c103.506,0 192.281,68.725 216.5,158.307c89.69,-23.817 193.594,18.702 245.347,108.341c51.753,89.638 36.623,200.882 -28.847,266.647c65.47,65.766 80.6,177.009 28.847,266.648c-51.753,89.639 -155.657,132.157 -245.347,108.341c-24.219,89.582 -112.994,158.306 -216.5,158.306c-103.505,0 -192.28,-68.724 -216.499,-158.306c-89.69,23.816 -193.595,-18.702 -245.348,-108.341c-51.753,-89.639 -36.623,-200.882 28.848,-266.648c-65.471,-65.765 -80.601,-177.009 -28.848,-266.647c51.753,-89.639 155.658,-132.158 245.348,-108.341Z" style="fill:#f8a6d3;"/></g></g><g id="Eyes"><g id="Right-eye" serif:id="Right eye"><ellipse cx="861.844" cy="714.192" rx="118.087" ry="146.962" style="fill:#fff;"/><g transform="matrix(0.321379,0,0,0.272448,622.816,519.612)"><ellipse cx="861.844" cy="714.192" rx="118.087" ry="146.962" style="fill:#f8a6d3;"/></g></g><g id="Left-eye" serif:id="Left eye"><g transform="matrix(0.893305,0,0,0.92197,415.557,44.2611)"><ellipse cx="861.844" cy="714.192" rx="118.087" ry="146.962" style="fill:#fff;"/></g><g transform="matrix(0.28709,0,0,0.251189,971.922,523.327)"><ellipse cx="861.844" cy="714.192" rx="118.087" ry="146.962" style="fill:#f8a6d3;"/></g></g></g></g></svg>