<svg width="100%" height="100%" viewBox="0 0 200 200" version="1.1"
    xmlns="http://www.w3.org/2000/svg" xmlns:xlink="http://www.w3.org/1999/xlink"
    xml:space="preserve" xmlns:serif="http://www.serif.com/"
    style="fill-rule:evenodd;clip-rule:evenodd;stroke-linejoin:round;stroke-miterlimit:2;">
    <g id="Artboard1" transform="matrix(0.903477,0,0,1.199,-235.114,-7.71317)">
        <rect x="260.232" y="6.433" width="221.367" height="166.806" style="fill:none;"/>
        <g transform="matrix(0.605586,0,0,0.456325,68.6855,-112.143)">
            <g transform="matrix(1,0,0,0.655233,-155.98,367.797)">
                <path d="M623.221,262.939C616.939,263.581 610.359,263.902 603.48,263.902C580.824,263.902 561.163,260.386 544.496,253.355C527.829,246.324 514.808,236.07 505.433,222.593C496.058,209.117 490.98,163.217 490.199,143.946L542.152,173.472C542.933,183.629 546.058,192.06 551.527,198.765C556.996,205.471 564.19,210.517 573.109,213.902C574.054,214.261 575.011,214.601 575.979,214.921C588.122,235.287 603.835,251.365 623.221,262.939ZM551.227,120.511C538.419,115.14 527.647,108.477 518.91,100.523C505.108,87.958 498.207,71.194 498.207,50.23C498.207,33.043 502.829,18.036 512.074,5.211C521.319,-7.615 533.982,-17.608 550.062,-24.77C566.143,-31.931 584.34,-35.512 604.652,-35.512C610.874,-35.512 616.866,-35.189 622.629,-34.542C603.287,-22.767 587.59,-6.428 575.443,14.265C567.761,17.506 561.873,21.942 557.777,27.574C553.61,33.303 551.527,39.814 551.527,47.105C551.527,53.61 553.112,59.164 556.282,63.766C557.047,64.876 557.903,65.93 558.851,66.929C563.734,72.073 569.984,76.207 577.601,79.332C585.219,82.457 592.999,85.061 600.941,87.144L628.09,93.98C628.832,94.157 629.572,94.338 630.311,94.522C640.457,97.061 650.263,100.363 659.73,104.429C669.887,108.791 679.034,114.26 687.172,120.836C695.31,127.411 701.755,135.386 706.508,144.761C711.26,154.136 713.637,165.139 713.637,177.769C713.637,184.043 713.037,190.043 711.839,195.771C707.314,196.576 702.58,196.973 697.638,196.973C683.698,196.973 671.326,193.677 660.554,186.822C660.359,186.698 660.165,186.572 659.972,186.446C660.722,183.517 661.097,180.429 661.097,177.183C661.097,169.631 658.884,163.414 654.457,158.531C650.03,153.648 643.91,149.514 636.097,146.129C634.868,145.596 633.605,145.073 632.308,144.559C625.362,141.81 617.446,139.339 608.558,137.144L575.551,128.55C566.759,126.305 558.651,123.625 551.227,120.511ZM707.644,31.402C708.893,36.845 709.589,87.187 709.73,93.124C709.73,93.124 696.181,76.432 688.07,70.866C679.959,65.3 661.064,59.73 661.064,59.73C660.866,57.824 658.259,44.725 657.865,42.951C658.727,42.326 659.606,41.725 660.503,41.148C671.329,34.18 683.783,30.831 697.833,30.831C701.197,30.831 704.467,31.02 707.644,31.402Z" style="fill:rgb(255,255,255);fill-rule:nonzero;"/>
            </g>
            <g transform="matrix(1,0,0,0.655233,-221.636,346.713)">
                <path d="M648.233,229.628C647.678,228.613 647.131,227.587 646.595,226.549C639.101,212.07 634.044,195.691 631.423,177.413C633.932,178.16 636.498,178.868 639.12,179.539C639.12,179.539 672.112,188.128 672.112,188.128C672.147,188.137 672.183,188.146 672.218,188.155C678.307,189.659 683.917,191.293 689.046,193.066C690.13,196.251 691.345,199.307 692.688,202.233C696.198,209.876 700.37,216.578 705.202,222.337C709.96,228.007 715.359,232.764 721.399,236.608C733.574,244.355 747.539,248.229 763.294,248.229C771.5,248.229 779.188,247.221 786.358,245.204C786.81,245.077 787.26,244.946 787.708,244.811C795.26,242.532 802.128,239.082 808.313,234.459C814.498,229.837 819.641,224.238 823.743,217.663C827.845,211.087 830.742,203.502 832.434,194.909L885.559,194.909C883.606,208.841 879.342,221.894 872.766,234.069C866.191,246.243 857.597,256.92 846.985,266.1C836.373,275.28 823.971,282.474 809.778,287.682C795.585,292.89 779.83,295.495 762.513,295.495C757.558,295.495 752.706,295.271 747.955,294.825C728.234,292.971 710.267,287.27 694.055,277.721C674.876,266.424 659.601,250.393 648.233,229.628ZM743.968,-2.213C749.987,-2.96 756.169,-3.333 762.513,-3.333C778.528,-3.333 793.535,-1.055 807.532,3.502C821.529,8.06 833.997,14.733 844.934,23.522C855.872,32.311 864.824,43.053 871.79,55.749C878.756,68.444 883.346,82.864 885.559,99.01L832.434,99.01C831.002,90.156 828.235,82.344 824.134,75.573C820.032,68.802 814.954,63.04 808.899,58.288C802.845,53.535 795.976,49.954 788.294,47.545C786.171,46.88 784.004,46.306 781.791,45.825C775.998,44.563 769.897,43.932 763.489,43.932C747.604,43.932 733.541,47.871 721.302,55.749C715.105,59.737 709.593,64.676 704.765,70.566C700.056,76.311 695.998,82.96 692.591,90.514C690.516,95.113 688.754,100.009 687.303,105.201C679.369,103.204 668.677,100.511 668.677,100.511C661.131,98.53 653.739,96.056 646.502,93.087C643.164,91.718 640.145,90.148 637.458,88.329C639.982,80.333 643.093,72.794 646.79,65.709C647.176,64.97 647.566,64.236 647.962,63.508C659.5,42.253 674.995,25.896 694.446,14.44C709.511,5.567 726.018,0.016 743.968,-2.213Z" style="fill:rgb(255,255,255);fill-rule:nonzero;"/>
            </g>
        </g>
    </g>
</svg>